<?xml version="1.0" encoding="UTF-8"?>
<svg width="256px" height="256px" viewBox="0 0 256 256" version="1.1" xmlns="http://www.w3.org/2000/svg" xmlns:xlink="http://www.w3.org/1999/xlink">
    <!-- Generator: Sketch 64 (93537) - https://sketch.com -->
    <title>icon</title>
    <desc>Created with Sketch.</desc>
    <g id="Page-1" stroke="none" stroke-width="1" fill="none" fill-rule="evenodd">
        <g id="icon">
            <rect id="Rectangle" fill="#1E61D9" x="0" y="0" width="256" height="256" rx="128"></rect>
            <g id="cog" transform="translate(28.000000, 28.000000)" fill="#FFFFFF" fill-rule="nonzero">
                <path d="M189.032845,78.2833333 L173.365528,76.2916667 C172.073808,72.3166667 170.482075,68.4833333 168.623665,64.8416667 L178.299066,52.3833333 C182.215896,47.3416667 181.757543,40.225 177.282358,35.8916667 L164.156813,22.7666667 C159.781631,18.25 152.664669,17.8 147.61446,21.7083333 L135.172277,31.3833333 C131.530459,29.525 127.696966,27.9333333 123.713468,26.6416667 L121.721718,11 C120.971687,4.725 115.646466,0 109.337871,0 L90.6704297,0 C84.3618345,0 79.0366135,4.725 78.2865824,10.975 L76.2948331,26.6416667 C72.3113344,27.9333333 68.477842,29.5166667 64.8360242,31.3833333 L52.3855074,21.7083333 C47.3519652,17.8 40.2350032,18.25 35.8931563,22.725 L22.7676116,35.8416667 C18.2507574,40.225 17.7924051,47.3416667 21.7092343,52.3916667 L31.3846359,64.8416667 C29.5178917,68.4833333 27.9344927,72.3166667 26.6427724,76.2916667 L11.0004565,78.2833333 C4.72519611,79.0333333 0,84.3583333 0,90.6666667 L0,109.333333 C0,115.641667 4.72519611,120.966667 10.9754555,121.716667 L26.6427724,123.708333 C27.9344927,127.683333 29.5262254,131.516667 31.3846359,135.158333 L21.7092343,147.616667 C17.7924051,152.658333 18.2507574,159.775 22.7259432,164.108333 L35.8514879,177.233333 C40.2350032,181.741667 47.3436315,182.191667 52.3938411,178.283333 L64.8443578,168.608333 C68.4861756,170.475 72.3196681,172.066667 76.2948331,173.35 L78.2865824,188.983333 C79.0366135,195.275 84.3618345,200 90.6704297,200 L109.337871,200 C115.646466,200 120.971687,195.275 121.721718,189.025 L123.713468,173.358333 C127.688633,172.066667 131.522125,170.475 135.163943,168.616667 L147.622793,178.291667 C152.664669,182.208333 159.781631,181.75 164.115144,177.275 L177.240689,164.15 C181.757543,159.766667 182.215896,152.658333 178.299066,147.608333 L168.623665,135.158333 C170.490409,131.516667 172.082142,127.683333 173.365528,123.708333 L188.999511,121.716667 C195.274771,120.966667 199.999978,115.641667 199.999978,109.333333 L199.999978,90.6666667 C200.008301,84.3583333 195.283105,79.0333333 189.032845,78.2833333 Z M100.00415,141.666667 C77.0281968,141.666667 58.3357544,122.975 58.3357544,100 C58.3357544,77.025 77.0281968,58.3333333 100.00415,58.3333333 C122.980104,58.3333333 141.672546,77.025 141.672546,100 C141.672546,122.975 122.980104,141.666667 100.00415,141.666667 Z" id="Shape"></path>
            </g>
        </g>
    </g>
</svg>