<svg xmlns="http://www.w3.org/2000/svg" viewBox="0 0 150 256">
  <path d="m99.857,128.054l-95.769,-95.773c-2.637,-2.631 -4.088,-6.148 -4.088,-9.899c0,-3.752 1.451,-7.268 4.088,-9.903l8.391,-8.387c2.633,-2.639 6.153,-4.092 9.903,-4.092c3.751,0 7.266,1.453 9.901,4.092l114.028,114.026c2.646,2.643 4.094,6.175 4.084,9.93c0.01,3.771 -1.436,7.299 -4.084,9.944l-113.922,113.916c-2.635,2.639 -6.15,4.092 -9.903,4.092c-3.75,0 -7.265,-1.453 -9.902,-4.092l-8.39,-8.387c-5.459,-5.46 -5.459,-14.347 0,-19.804l95.663,-95.663z"/>
</svg>
