<svg xmlns="http://www.w3.org/2000/svg" viewBox="0 0 150 256">
  <path d="M 50.538 128.054 L 146.307 32.281 C 148.944 29.65 150.395 26.133 150.395 22.382 C 150.395 18.63 148.944 15.114 146.307 12.479 L 137.916 4.092 C 135.283 1.453 131.763 0 128.013 0 C 124.262 0 120.747 1.453 118.112 4.092 L 4.084 118.118 C 1.438 120.761 -0.01 124.293 0 128.048 C -0.01 131.819 1.436 135.347 4.084 137.992 L 118.006 251.908 C 120.641 254.547 124.156 256 127.909 256 C 131.659 256 135.174 254.547 137.811 251.908 L 146.201 243.521 C 151.66 238.061 151.66 229.174 146.201 223.717 L 50.538 128.054 Z"/>
</svg>
